<?xml version="1.0" standalone="no"?>
<!DOCTYPE svg PUBLIC "-//W3C//DTD SVG 20010904//EN"
 "http://www.w3.org/TR/2001/REC-SVG-20010904/DTD/svg10.dtd">
<svg version="1.0" xmlns="http://www.w3.org/2000/svg"
 width="43.000000pt" height="37.000000pt" viewBox="0 0 43.000000 37.000000"
 preserveAspectRatio="xMidYMid meet">

<g transform="translate(0.000000,37.000000) scale(0.100000,-0.100000)"
fill="#000000" stroke="none">
<path d="M0 185 l0 -185 215 0 215 0 0 185 0 185 -215 0 -215 0 0 -185z m144
114 c-3 -5 26 -9 65 -9 41 0 71 4 71 10 0 6 19 10 43 10 l42 0 -3 -111 c-2
-75 1 -115 9 -125 10 -12 5 -14 -27 -14 l-39 0 2 92 c2 63 0 86 -6 73 -5 -11
-10 -30 -10 -41 -1 -12 -8 -24 -16 -27 -8 -4 -24 -25 -36 -48 -20 -40 -22 -42
-35 -24 -8 10 -14 23 -14 28 0 4 -5 5 -10 2 -8 -5 -8 -11 0 -20 12 -15 -4 -25
-30 -18 -12 3 -14 18 -12 68 2 36 -1 72 -7 82 -9 14 -11 -3 -9 -75 l3 -92 -34
0 c-25 0 -31 3 -23 13 14 17 16 213 2 222 -20 12 -1 21 39 17 23 -2 38 -8 35
-13z"/>
<path d="M177 254 c-10 -11 11 -41 33 -47 22 -6 50 16 50 39 0 10 -12 14 -38
14 -21 0 -42 -3 -45 -6z"/>
</g>
</svg>
